<svg width="60" height="63" viewBox="0 0 60 63" fill="none" xmlns="http://www.w3.org/2000/svg">
<path fill-rule="evenodd" clip-rule="evenodd" d="M9.99999 0H17.5C20.1522 0 22.6957 1.10625 24.5711 3.07537C26.4464 5.0445 27.5 7.71521 27.5 10.5V18.375C27.5 21.1597 26.4464 23.8305 24.5711 25.7996C22.6957 27.7687 20.1522 28.875 17.5 28.875H9.99999C7.34783 28.875 4.80429 27.7687 2.92893 25.7996C1.05357 23.8305 0 21.1597 0 18.375V10.5C0 7.71521 1.05357 5.0445 2.92893 3.07537C4.80429 1.10625 7.34783 0 9.99999 0ZM21.0355 22.0873C21.9732 21.1027 22.5 19.7674 22.5 18.375V10.5C22.5 9.1076 21.9732 7.77224 21.0355 6.78768C20.0978 5.80311 18.8261 5.24999 17.5 5.24999H9.99999C8.67391 5.24999 7.40214 5.80311 6.46446 6.78768C5.52678 7.77224 5 9.1076 5 10.5V18.375C5 19.7674 5.52678 21.1027 6.46446 22.0873C7.40214 23.0718 8.67391 23.625 9.99999 23.625H17.5C18.8261 23.625 20.0978 23.0718 21.0355 22.0873ZM42.4999 0H49.9998C52.652 0 55.1955 1.10625 57.0709 3.07537C58.9463 5.0445 59.9998 7.71521 59.9998 10.5V18.375C59.9998 21.1597 58.9463 23.8305 57.0709 25.7996C55.1955 27.7687 52.652 28.875 49.9998 28.875H42.4999C39.8477 28.875 37.3041 27.7687 35.4288 25.7996C33.5534 23.8305 32.4999 21.1597 32.4999 18.375V10.5C32.4999 7.71521 33.5534 5.0445 35.4288 3.07537C37.3041 1.10625 39.8477 0 42.4999 0ZM53.5354 22.0873C54.4731 21.1027 54.9998 19.7674 54.9998 18.375V10.5C54.9998 9.1076 54.4731 7.77224 53.5354 6.78768C52.5977 5.80311 51.3259 5.24999 49.9998 5.24999H42.4999C41.1738 5.24999 39.902 5.80311 38.9643 6.78768C38.0266 7.77224 37.4999 9.1076 37.4999 10.5V18.375C37.4999 19.7674 38.0266 21.1027 38.9643 22.0873C39.902 23.0718 41.1738 23.625 42.4999 23.625H49.9998C51.3259 23.625 52.5977 23.0718 53.5354 22.0873ZM17.5 34.125H9.99999C7.34783 34.125 4.80429 35.2312 2.92893 37.2003C1.05357 39.1695 0 41.8402 0 44.6249V52.4999C0 55.2847 1.05357 57.9554 2.92893 59.9245C4.80429 61.8937 7.34783 62.9999 9.99999 62.9999H17.5C20.1522 62.9999 22.6957 61.8937 24.5711 59.9245C26.4464 57.9554 27.5 55.2847 27.5 52.4999V44.6249C27.5 41.8402 26.4464 39.1695 24.5711 37.2003C22.6957 35.2312 20.1522 34.125 17.5 34.125ZM22.5 52.4999C22.5 53.8923 21.9732 55.2277 21.0355 56.2122C20.0978 57.1968 18.8261 57.7499 17.5 57.7499H9.99999C8.67391 57.7499 7.40214 57.1968 6.46446 56.2122C5.52678 55.2277 5 53.8923 5 52.4999V44.6249C5 43.2326 5.52678 41.8972 6.46446 40.9126C7.40214 39.9281 8.67391 39.3749 9.99999 39.3749H17.5C18.8261 39.3749 20.0978 39.9281 21.0355 40.9126C21.9732 41.8972 22.5 43.2326 22.5 44.6249V52.4999ZM42.5 34.125H50C52.6522 34.125 55.1957 35.2312 57.0711 37.2003C58.9464 39.1695 60 41.8402 60 44.6249V52.4999C60 55.2847 58.9464 57.9554 57.0711 59.9245C55.1957 61.8937 52.6522 62.9999 50 62.9999H42.5C39.8478 62.9999 37.3043 61.8937 35.4289 59.9245C33.5536 57.9554 32.5 55.2847 32.5 52.4999V44.6249C32.5 41.8402 33.5536 39.1695 35.4289 37.2003C37.3043 35.2312 39.8478 34.125 42.5 34.125ZM53.5355 56.2122C54.4732 55.2277 55 53.8923 55 52.4999V44.6249C55 43.2326 54.4732 41.8972 53.5355 40.9126C52.5978 39.9281 51.3261 39.3749 50 39.3749H42.5C41.1739 39.3749 39.9021 39.9281 38.9645 40.9126C38.0268 41.8972 37.5 43.2326 37.5 44.6249V52.4999C37.5 53.8923 38.0268 55.2277 38.9645 56.2122C39.9021 57.1968 41.1739 57.7499 42.5 57.7499H50C51.3261 57.7499 52.5978 57.1968 53.5355 56.2122Z" fill="#83E356"/>
</svg>
