<svg width="60" height="63" viewBox="0 0 60 63" fill="none" xmlns="http://www.w3.org/2000/svg">
<path d="M29.6427 10.532C19.1787 10.713 10.3627 19.7826 9.9901 30.7463C9.77002 37.1162 12.276 43.1635 16.8678 47.3428C18.846 49.1451 19.979 51.9156 19.979 55.1294C19.979 59.4687 23.3453 63 27.4819 63H32.4838C36.6204 63 39.9867 59.4687 39.9867 55.1294V54.1456C39.9867 51.6113 41.1246 49.1661 43.1929 47.2562C47.5146 43.2737 49.9905 37.5386 49.9905 31.5176C49.9905 25.8482 47.8672 20.5329 44.0132 16.5556C40.1593 12.5784 35.0523 10.4034 29.6427 10.532ZM34.9848 55.1294C34.9848 56.5776 33.8643 57.7529 32.4838 57.7529H27.4819C26.1013 57.7529 24.9809 56.5776 24.9809 54.9484C24.9809 54.1193 24.9034 53.306 24.7883 52.5059H35.0873C35.0248 53.0463 34.9848 53.5946 34.9848 54.1456V55.1294ZM39.8916 43.3156C38.6137 44.4936 37.5833 45.8264 36.7905 47.2588H32.4838V36.282C35.3874 35.1958 37.4857 32.3099 37.4857 28.8941C37.4857 27.4433 36.3678 26.2706 34.9848 26.2706C33.6017 26.2706 32.4838 27.4433 32.4838 28.8941C32.4838 30.3449 31.3634 31.5176 29.9828 31.5176C28.6023 31.5176 27.4819 30.3423 27.4819 28.8941C27.4819 27.4459 26.3639 26.2706 24.9809 26.2706C23.5979 26.2706 22.4799 27.4433 22.4799 28.8941C22.4799 32.3099 24.5782 35.1958 27.4819 36.282V47.2588H23.1152C22.3399 45.7949 21.347 44.4779 20.144 43.3812C16.7027 40.2461 14.822 35.71 14.987 30.9352C15.2671 22.7131 21.8797 15.9129 29.7277 15.7791C29.8128 15.7791 29.8953 15.7791 29.9828 15.7791C33.9494 15.7791 37.6783 17.3768 40.5069 20.2994C43.398 23.2824 44.9911 27.2675 44.9911 31.5202C44.9911 36.0327 43.1329 40.3301 39.8941 43.3183L39.8916 43.3156ZM41.9499 6.52587L45.0386 1.25257C45.7589 0.0142606 47.2995 -0.371398 48.4775 0.392049C49.6554 1.15025 50.0231 2.76372 49.2978 3.9994L46.2091 9.2727C45.7389 10.0808 44.9161 10.5241 44.0758 10.5241C43.6281 10.5241 43.1779 10.3982 42.7703 10.1358C41.5923 9.37764 41.2247 7.76155 41.9499 6.52587ZM58.5263 17.4083L53.692 19.696C53.3593 19.856 53.0092 19.9295 52.6666 19.9295C51.7112 19.9295 50.8034 19.3549 50.3857 18.3842C49.8155 17.0646 50.3757 15.5088 51.6362 14.9159L56.4705 12.6282C57.736 12.0274 59.2116 12.6203 59.7768 13.94C60.347 15.2596 59.7868 16.8154 58.5263 17.4083ZM10.4603 3.99678C9.7375 2.7611 10.1076 1.145 11.2856 0.389426C12.4686 -0.366151 14.0042 0.0221313 14.7244 1.25519L17.8056 6.53111C18.5284 7.7668 18.1583 9.38289 16.9803 10.1385C16.5726 10.4008 16.12 10.5241 15.6773 10.5241C14.8345 10.5241 14.0142 10.0781 13.5415 9.27008L10.4603 3.99416V3.99678ZM9.25232 18.56C8.82465 19.5019 7.92931 20.0502 6.99645 20.0502C6.63381 20.0502 6.26616 19.9688 5.91853 19.7904L1.42179 17.5316C0.176314 16.9072 -0.35139 15.3409 0.246341 14.0344C0.83907 12.7253 2.33965 12.1665 3.58013 12.8014L8.07686 15.0602C9.32234 15.6846 9.85005 17.2535 9.25232 18.56Z" fill="#83E356"/>
</svg>
