<svg width="109" height="115" viewBox="0 0 109 115" fill="none" xmlns="http://www.w3.org/2000/svg">
<path d="M81.6747 40.8503C81.6747 44.0125 80.4856 47.0451 78.3691 49.2811C76.2525 51.5171 73.3819 52.7733 70.3886 52.7733C67.3953 52.7733 64.5247 51.5171 62.4081 49.2811C60.2916 47.0451 59.1025 44.0125 59.1025 40.8503C59.1025 37.6881 60.2916 34.6555 62.4081 32.4195C64.5247 30.1835 67.3953 28.9273 70.3886 28.9273C73.3819 28.9273 76.2525 30.1835 78.3691 32.4195C80.4856 34.6555 81.6747 37.6881 81.6747 40.8503ZM87.0197 68.7171C83.7663 71.9881 81.688 76.2633 80.9385 80.8154C80.1068 85.8673 78.5802 90.7771 76.3973 95.386C73.4382 101.298 68.9951 106.234 63.5552 109.654C58.1153 113.074 51.889 114.845 45.5592 114.773C43.0659 114.773 41.0447 112.752 41.0447 110.258V88.5422C41.0245 84.1217 39.3534 79.8884 36.3946 76.7626C33.4357 73.6368 29.4285 71.8714 25.2442 71.85H5.18391C2.54996 71.85 0.414726 69.7148 0.414726 67.0808C0.346385 60.3938 2.02274 53.8161 5.2599 48.0693C8.49706 42.3225 13.17 37.6286 18.7659 34.5025C22.8696 32.3334 27.2252 30.7777 31.7078 29.8694C36.5035 28.8975 40.9995 26.5787 44.2943 22.9611C49.9777 16.7207 56.6698 11.5696 64.0752 7.76135C73.7349 2.79376 84.3484 0.24475 95.0917 0.312218C96.8793 0.300285 98.6516 0.661241 100.307 1.37439C101.962 2.08754 103.468 3.13886 104.738 4.46807C106.008 5.79727 107.017 7.37823 107.708 9.12028C108.398 10.8623 108.756 12.7312 108.761 14.6198C108.838 25.9905 106.431 37.2268 101.729 47.4553C98.0611 55.4332 93.0735 62.6305 87.0197 68.7171ZM11.5018 56.0536C10.2291 59.2332 12.8924 62.3117 16.3172 62.3117C18.5711 62.3117 20.599 60.9612 21.5261 58.9068C23.2079 55.1807 25.022 51.5236 26.9644 47.9435C28.6472 44.842 25.9335 41.3782 22.8154 43.0298C19.3751 44.949 16.4081 47.6926 14.1519 51.041C13.0946 52.6101 12.2071 54.2916 11.5018 56.0536ZM68.3255 91.108C69.866 87.8622 66.1996 85.2119 63.1184 87.0599C59.9606 88.9537 56.7403 90.7302 53.4633 92.3859C51.4059 93.4254 50.0736 95.5151 50.0736 97.8202C50.0736 101.497 53.4283 104.328 56.7336 102.716C58.1346 102.033 59.477 101.212 60.7423 100.26C63.9118 97.8769 66.5088 94.7424 68.3255 91.108ZM99.7325 14.4862C99.6996 13.2447 99.2094 12.0656 98.3664 11.1999C97.5233 10.3342 96.3938 9.85011 95.2181 9.85059C71.9235 10.5517 56.1681 19.9803 40.9635 42.386C39.4782 44.6452 38.0556 46.9484 36.6974 49.2927C32.8172 55.9898 37.4984 64.3735 42.8192 69.9945C48.1619 75.6388 56.6673 80.2367 63.1654 75.9732C65.1261 74.6867 67.0559 73.3469 68.953 71.955C90.1438 55.8733 99.0689 39.2288 99.7325 14.4862ZM28.0522 85.5805C30.5747 88.2728 31.9897 91.9079 31.9897 95.696C31.9897 99.4841 30.5747 103.119 28.0522 105.811C23.9576 110.132 11.7008 112.798 6.61757 113.747C3.53165 114.32 0.814394 111.653 1.32925 108.557L1.38533 108.22C2.28822 102.85 4.80728 89.9014 8.89737 85.5758C11.4785 82.9749 14.9087 81.5243 18.4757 81.5252C22.0426 81.5261 25.4722 82.9784 28.0522 85.5805ZM22.9869 95.696C22.9886 95.0695 22.8725 94.4488 22.6454 93.87C22.4184 93.2913 22.0849 92.7658 21.6642 92.3242C20.8176 91.4301 19.6696 90.9278 18.4725 90.9278C17.5934 90.9278 16.7408 91.1987 16.0146 91.6966C15.4853 92.0596 15.1258 92.6105 14.8433 93.1868C14.78 93.3158 14.7176 93.4453 14.6559 93.5751C12.6378 97.8211 16.7105 101.787 20.8363 99.5337C21.3889 99.2319 21.9151 98.8476 22.2482 98.3131C22.4042 98.0629 22.5377 97.797 22.6466 97.5188C22.8729 96.9409 22.9885 96.3214 22.9869 95.696Z" fill="#050F60"/>
</svg>
