<svg width="60" height="64" viewBox="0 0 60 64" fill="none" xmlns="http://www.w3.org/2000/svg">
<path d="M56.5776 41.625C57.1276 43.6544 56.8513 45.781 55.8012 47.603C54.7512 49.425 53.0486 50.7324 51.0143 51.2785C48.9827 51.8246 46.8484 51.5516 45.0221 50.504L43.8405 49.8241C41.6247 51.7143 39.0746 53.1819 36.3219 54.1533V55.5238C36.3219 59.8661 32.7798 63.3999 28.4271 63.3999C24.0743 63.3999 20.5322 59.8661 20.5322 55.5238V54.1533C17.7769 53.1819 15.2268 51.7117 13.0136 49.8241L11.8294 50.504C10.0057 51.5489 7.87405 51.8246 5.8398 51.2785C3.80555 50.7324 2.10289 49.425 1.05287 47.6003C0.00284939 45.781 -0.273471 43.6544 0.276539 41.625C0.823917 39.5956 2.13447 37.8969 3.96345 36.8494L5.14768 36.1694C4.87925 34.7439 4.74504 33.313 4.74504 31.9006C4.74504 30.4881 4.88189 29.0573 5.14768 27.6317L3.96082 26.9517C2.13447 25.9042 0.823917 24.2056 0.276539 22.1761C-0.273471 20.1467 0.00284939 18.0202 1.05287 16.1981C2.10289 14.3761 3.80555 13.0687 5.8398 12.5226C7.86878 11.9739 10.0057 12.2496 11.832 13.2971L13.0136 13.9771C15.2294 12.0868 17.7795 10.6192 20.5322 9.64781V8.27736C20.5322 3.93498 24.0743 0.401215 28.4271 0.401215C31.235 0.401215 33.8561 1.90818 35.264 4.33666C35.993 5.59422 35.5614 7.19833 34.3061 7.92294C33.0403 8.65279 31.4324 8.2196 30.7113 6.9673C30.2402 6.15343 29.3665 5.65198 28.4297 5.65198C26.977 5.65198 25.7981 6.82815 25.7981 8.27736V11.5906C25.7981 12.7878 24.9849 13.8327 23.8243 14.132C20.569 14.9721 17.6111 16.676 15.2715 19.0598C14.4321 19.9157 13.1189 20.0942 12.0794 19.5009L9.20828 17.8548C8.60038 17.5056 7.89773 17.4111 7.21088 17.5948C6.53192 17.776 5.96348 18.2118 5.61611 18.8209C5.26347 19.43 5.17137 20.1362 5.35558 20.8136C5.53716 21.4909 5.97401 22.058 6.58455 22.4046L9.46355 24.0559C10.503 24.6545 11.0057 25.8753 10.6873 27.0305C10.2372 28.6608 10.0083 30.3017 10.0083 31.9058C10.0083 33.5099 10.2372 35.1508 10.6873 36.7811C11.0057 37.9337 10.503 39.1571 9.46355 39.7557L6.58718 41.4071C5.97664 41.7562 5.53979 42.3233 5.35558 42.9981C5.17137 43.6754 5.26347 44.379 5.61611 44.9881C5.96612 45.5972 6.53455 46.033 7.21088 46.2168C7.89247 46.3979 8.59774 46.306 9.20565 45.9569L12.0794 44.3107C13.1136 43.7174 14.4294 43.8907 15.2715 44.7518C17.6111 47.1357 20.569 48.8395 23.8243 49.6797C24.9849 49.9763 25.7981 51.0238 25.7981 52.221V55.5343C25.7981 56.9835 26.977 58.1596 28.4297 58.1596C29.8823 58.1596 31.0613 56.9835 31.0613 55.5343V52.221C31.0613 51.0238 31.8745 49.9789 33.035 49.6797C36.2904 48.8395 39.2483 47.1357 41.5878 44.7518C42.4273 43.8959 43.7458 43.72 44.78 44.3107L47.6511 45.9569C48.2616 46.3087 48.9643 46.4005 49.6485 46.2168C50.3275 46.0356 50.8959 45.5998 51.2433 44.9907C51.5959 44.3816 51.688 43.6754 51.5038 42.9981C51.3222 42.3207 50.8854 41.7536 50.2748 41.4071L47.3958 39.7557C46.3563 39.1571 45.8537 37.9363 46.1721 36.7811C46.6221 35.1508 46.8511 33.5099 46.8511 31.9058C46.8511 30.454 48.0274 29.2804 49.4827 29.2804C50.938 29.2804 52.1143 30.454 52.1143 31.9058C52.1143 33.3183 51.9775 34.7491 51.7117 36.1747L52.8986 36.8547C54.7249 37.9022 56.0355 39.6008 56.5828 41.6302L56.5776 41.625ZM57.6907 13.8405L38.1799 33.3051C35.6956 35.7835 32.3903 37.1513 28.8771 37.1513H25.7928C24.3375 37.1513 23.1612 35.9778 23.1612 34.5259V31.449C23.1612 27.9441 24.5322 24.6466 27.0165 22.1683L46.5274 2.70368C49.6064 -0.368022 54.6117 -0.368022 57.6907 2.70368C60.7698 5.77537 60.7698 10.7689 57.6907 13.8405ZM47.8906 16.1929L44.1694 12.4806L30.7376 25.8806C29.2665 27.3481 28.4244 29.3776 28.4244 31.449V31.9006H28.8771C30.9534 31.9006 32.9877 31.0604 34.4587 29.5928L47.8906 16.1929ZM53.9696 6.41597C52.9407 5.38944 51.2775 5.38944 50.2485 6.41597L47.8906 8.76831L51.6117 12.4806L53.9696 10.1283C54.996 9.10436 54.996 7.43987 53.9696 6.41597Z" fill="#83E356"/>
</svg>
