<svg width="111" height="124" viewBox="0 0 111 124" fill="none" xmlns="http://www.w3.org/2000/svg">
<path fill-rule="evenodd" clip-rule="evenodd" d="M51.0018 0.0397949H60.1291V20.6183H51.0018V0.0397949ZM93.6371 32.583C95.5555 33.6804 97.2183 35.2704 98.4915 37.225L107.833 51.6042C109.784 54.5773 110.717 58.2447 110.459 61.9314C110.202 65.6181 108.772 69.0759 106.432 71.6682L55.5657 123.156L4.86793 71.8431C2.46823 69.2593 0.985331 65.7788 0.696408 62.0522C0.407485 58.3256 1.33231 54.6078 3.29802 51.5939L12.6398 37.225C13.9131 35.2704 15.5759 33.6804 17.4942 32.583C19.4126 31.4857 21.5327 30.9117 23.6839 30.9074H87.4474C89.5986 30.9117 91.7188 31.4857 93.6371 32.583ZM44.6768 98.3019L34.1575 66.9197H13.653L44.6768 98.3019ZM55.5657 101.682L67.2167 66.9197H43.9146L55.5657 101.682ZM49.528 41.1967L44.0516 56.6305H67.0798L61.6034 41.1967H49.528ZM97.4692 66.9197H76.9738L66.4363 98.3019L97.4692 66.9197ZM99.7967 56.6305L91.1212 43.3008H91.1303C90.7063 42.6485 90.1519 42.118 89.512 41.7524C88.8721 41.3868 88.1648 41.1964 87.4474 41.1967H71.4335L76.9099 56.6305H99.7967ZM21.6143 41.75C20.9727 42.1157 20.4168 42.6471 19.9919 43.3008L11.3346 56.6305H34.2214L39.6978 41.1967H23.6839C22.965 41.1948 22.2559 41.3844 21.6143 41.75ZM83.6638 2.97145L74.5375 19.1413L82.2409 24.6666L91.3673 8.49677L83.6638 2.97145ZM19.7702 8.53919L27.4698 3.01382L36.5963 19.1756L28.8966 24.7009L19.7702 8.53919Z" fill="#050F60"/>
</svg>
