<svg width="109" height="89" viewBox="0 0 109 89" fill="none" xmlns="http://www.w3.org/2000/svg">
<path fill-rule="evenodd" clip-rule="evenodd" d="M54.453 0.30835C82.423 0.30835 98.3594 20.3195 105.365 32.2468C107.531 35.9087 108.678 40.1287 108.678 44.4339C108.678 48.7391 107.531 52.9592 105.365 56.621C98.3594 68.5483 82.423 88.5595 54.453 88.5595C26.483 88.5595 10.5466 68.5483 3.5406 56.621C1.37477 52.9592 0.227539 48.7391 0.227539 44.4339C0.227539 40.1287 1.37477 35.9087 3.5406 32.2468C10.5466 20.3195 26.483 0.30835 54.453 0.30835ZM54.453 79.1158C78.0278 79.1158 91.6469 61.9047 97.6637 51.6772C98.9505 49.5007 99.6321 46.9925 99.6321 44.4339C99.6321 41.8753 98.9505 39.3672 97.6637 37.1906C91.6469 26.9442 78.0278 9.75202 54.453 9.75202C30.8782 9.75202 17.2591 26.9631 11.2423 37.1906C9.95551 39.3672 9.27395 41.8753 9.27395 44.4339C9.27395 46.9925 9.95551 49.5007 11.2423 51.6772C17.2591 61.9047 30.8782 79.1158 54.453 79.1158ZM41.9051 24.8036C45.6192 22.2094 49.9859 20.8248 54.4529 20.8248C60.4408 20.8323 66.1814 23.3221 70.4154 27.748C74.6495 32.174 77.0313 38.1747 77.0385 44.434C77.0385 49.1034 75.7139 53.668 73.2322 57.5505C70.7504 61.433 67.223 64.4591 63.0961 66.246C58.9691 68.0329 54.4279 68.5005 50.0467 67.5895C45.6655 66.6785 41.6412 64.43 38.4825 61.1282C35.3239 57.8264 33.1728 53.6196 32.3013 49.0399C31.4299 44.4602 31.8771 39.7131 33.5866 35.3991C35.296 31.0851 38.1909 27.3979 41.9051 24.8036ZM46.9242 56.2122C49.1527 57.7687 51.7727 58.5995 54.4529 58.5995C58.047 58.5995 61.4938 57.107 64.0352 54.4505C66.5766 51.7939 68.0043 48.1909 68.0043 44.434C68.0043 41.6323 67.2095 38.8935 65.7205 36.564C64.2314 34.2345 62.115 32.4189 59.6388 31.3467C57.1626 30.2746 54.4379 29.9941 51.8092 30.5406C49.1805 31.0872 46.7659 32.4364 44.8707 34.4174C42.9755 36.3985 41.6849 38.9226 41.162 41.6704C40.6391 44.4182 40.9075 47.2665 41.9331 49.8549C42.9588 52.4433 44.6957 54.6556 46.9242 56.2122Z" fill="#050F60"/>
</svg>
