<svg width="60" height="60" viewBox="0 0 60 60" fill="none" xmlns="http://www.w3.org/2000/svg">
<g clip-path="url(#clip0_114_690)">
<path d="M58.535 40.225C58.535 40.225 36.7 30.3 36.6225 30.275C34.8025 29.655 32.8275 30.1125 31.4675 31.4725C30.1075 32.8325 29.65 34.8075 30.3625 36.85L40.2225 58.5375C40.62 59.415 41.4875 59.985 42.4525 60.0025H42.5C43.445 60.0025 44.3125 59.4675 44.7375 58.62L49.365 49.365L58.62 44.7375C59.4825 44.305 60.02 43.42 60.0025 42.455C59.985 41.4925 59.415 40.625 58.5375 40.225H58.535ZM46.3825 45.265C45.9 45.5075 45.505 45.9 45.265 46.3825L42.605 51.7025L34.995 35.0125L51.6975 42.6075L46.385 45.2625L46.3825 45.265ZM32.28 54.9C31.85 54.9375 31.4175 54.965 30.98 54.9825C29.31 53.33 24.955 48.6875 21.92 42.5025H23.75C25.13 42.5025 26.25 41.385 26.25 40.0025C26.25 38.62 25.13 37.5025 23.75 37.5025H19.925C19.1975 35.1225 18.75 32.6025 18.75 30.0025C18.75 27.4025 19.2 24.885 19.93 22.5025H40.0725C40.3675 23.47 40.6175 24.46 40.81 25.47C41.07 26.8275 42.3825 27.7225 43.7325 27.4575C45.0875 27.2 45.9775 25.89 45.72 24.535C45.59 23.8475 45.435 23.17 45.2625 22.5025H53.745C53.7775 22.5025 53.8125 22.5025 53.845 22.5025C54.5925 24.8725 54.995 27.3925 54.995 30.005C54.995 30.7725 54.96 31.53 54.8925 32.28C54.77 33.655 55.7825 34.87 57.1575 34.995C58.5375 35.13 59.75 34.105 59.8725 32.73C59.9525 31.8325 59.995 30.9225 59.995 30.005C60 13.4575 46.5425 0 30 0C13.4575 0 0 13.4575 0 30C0 46.5425 13.4575 60 29.9975 60C30.915 60 31.8225 59.9575 32.7175 59.8775C34.0925 59.755 35.11 58.5425 34.9875 57.165C34.865 55.7925 33.655 54.7775 32.2775 54.8975L32.28 54.9ZM14.73 37.5025H6.25C6.2175 37.5025 6.185 37.5025 6.15 37.5025C5.4025 35.1325 5 32.6125 5 30C5 27.3875 5.4025 24.8675 6.15 22.4975C6.1825 22.4975 6.215 22.4975 6.25 22.4975H14.73C14.1175 24.885 13.75 27.395 13.75 29.9975C13.75 32.6 14.115 35.11 14.73 37.4975V37.5025ZM21.9325 17.5025C24.485 12.31 27.97 8.1925 30.005 6.0325C32.0425 8.19 35.5275 12.3 38.08 17.5025H21.9325ZM51.645 17.5025H43.575C41.5975 12.7875 38.855 8.7825 36.495 5.86C42.9425 7.5975 48.3675 11.8525 51.645 17.5025ZM23.5 5.86C21.14 8.7825 18.395 12.7875 16.42 17.5H8.355C11.63 11.85 17.0525 7.595 23.5 5.86ZM8.355 42.5H16.42C18.395 47.215 21.14 51.2175 23.5 54.14C17.055 52.4025 11.6325 48.1475 8.355 42.5Z" fill="#83E356"/>
</g>
<defs>
<clipPath id="clip0_114_690">
<rect width="60" height="60" fill="white"/>
</clipPath>
</defs>
</svg>
